<svg width="8" height="9" viewBox="0 0 8 9" fill="none" xmlns="http://www.w3.org/2000/svg">
<path d="M5.28041 7.13569C5.36147 6.73366 5.44153 6.33141 5.36107 5.92449C5.26385 5.42394 5.00473 5.00178 4.53694 4.68398C3.79381 4.18037 2.77414 3.87095 2.38238 3.07483C2.11169 2.52541 2.32146 1.91827 2.55929 1.39269C2.59846 1.30545 2.63548 1.22504 2.67592 1.13717C2.45729 1.16044 2.25129 1.21866 2.06027 1.30781C0.869427 1.87916 0.73304 3.60997 1.76109 5.17845C2.653 6.53802 4.12748 7.3263 5.28041 7.13569Z" fill="#1E1E1C"/>
<path d="M3.08407 1.13026C3.08086 1.14052 3.0731 1.15157 3.06807 1.16416C2.81103 1.73391 2.56406 2.40492 2.9544 2.97988C3.491 3.7725 4.60879 3.98801 5.29991 4.64373C5.66865 5.00026 5.87092 5.46346 5.88747 5.93731C5.9069 6.31652 5.81941 6.68775 5.74846 7.06093C5.81197 7.03973 5.87702 7.01705 5.94174 6.98513C7.13177 6.41634 7.26443 4.68376 6.23865 3.11488C5.43772 1.89617 4.16958 1.13405 3.08407 1.13026Z" fill="#1E1E1C"/>
</svg>
