<svg width="8" height="9" viewBox="0 0 8 9" fill="none" xmlns="http://www.w3.org/2000/svg">
<g opacity="0.25">
<path d="M5.28053 7.13551C5.36159 6.73348 5.44165 6.33123 5.36119 5.92431C5.26397 5.42376 5.00485 5.0016 4.53706 4.68379C3.79393 4.18019 2.77427 3.87076 2.38251 3.07465C2.11181 2.52523 2.32159 1.91809 2.55941 1.39251C2.59858 1.30527 2.6356 1.22486 2.67604 1.13699C2.45741 1.16025 2.25141 1.21848 2.06039 1.30762C0.86955 1.87898 0.733162 3.60979 1.76121 5.17827C2.65312 6.53784 4.1276 7.32612 5.28053 7.13551Z" fill="#1E1E1C"/>
<path d="M3.0842 1.13007C3.08098 1.14033 3.07322 1.15138 3.0682 1.16398C2.81115 1.73372 2.56418 2.40473 2.95452 2.9797C3.49112 3.77232 4.60891 3.98783 5.30003 4.64355C5.66877 5.00008 5.87104 5.46328 5.88759 5.93713C5.90702 6.31633 5.81953 6.68756 5.74859 7.06075C5.81209 7.03955 5.87714 7.01687 5.94186 6.98495C7.1319 6.41616 7.26455 4.68358 6.23877 3.1147C5.43784 1.89599 4.1697 1.13386 3.0842 1.13007Z" fill="#1E1E1C"/>
</g>
</svg>
